<?xml version="1.0" encoding="UTF-8"?>
<svg xmlns="http://www.w3.org/2000/svg" xmlns:xlink="http://www.w3.org/1999/xlink" width="25px" height="25px" viewBox="0 0 25 25" version="1.1">
<g id="surface1">
<path style=" stroke:none;fill-rule:evenodd;fill:rgb(0%,0%,0%);fill-opacity:1;" d="M 15.785156 6.316406 L 18.726562 7.890625 L 3.152344 15.566406 L 3.085938 18.648438 L 6.226562 20.144531 L 9.226562 18.621094 L 6.222656 17.1875 L 21.910156 9.453125 L 21.910156 6.34375 L 18.792969 4.785156 Z M 16.644531 3.707031 L 12.488281 1.722656 L 8.519531 3.675781 L 11.40625 5.234375 L 12.527344 4.683594 L 13.5625 5.230469 Z M 18.78125 20.148438 L 21.914062 18.621094 L 21.875 11.582031 L 18.832031 12.976562 L 18.878906 17.078125 L 14.652344 15.109375 L 11.628906 16.605469 Z M 3.144531 6.324219 L 3.148438 13.410156 L 6.171875 12.066406 L 6.214844 7.855469 L 10.46875 9.886719 L 13.46875 8.339844 L 6.207031 4.824219 Z M 11.425781 19.71875 L 8.441406 21.210938 L 12.515625 23.277344 L 16.527344 21.199219 L 13.613281 19.71875 L 12.476562 20.273438 Z M 11.425781 19.71875 "/>
</g>
</svg>
