<?xml version="1.0" encoding="UTF-8"?>
<!DOCTYPE svg PUBLIC "-//W3C//DTD SVG 1.1//EN" "http://www.w3.org/Graphics/SVG/1.1/DTD/svg11.dtd">
<!-- Creator: CorelDRAW -->
<svg xmlns="http://www.w3.org/2000/svg" xml:space="preserve" width="210mm" height="297mm" version="1.1" style="shape-rendering:geometricPrecision; text-rendering:geometricPrecision; image-rendering:optimizeQuality; fill-rule:evenodd; clip-rule:evenodd"
viewBox="0 0 21000 29700"
 xmlns:xlink="http://www.w3.org/1999/xlink"
 xmlns:xodm="http://www.corel.com/coreldraw/odm/2003">
 <defs>
  <style type="text/css">
   <![CDATA[
    .fil0 {fill:#05A3C9}
   ]]>
  </style>
 </defs>
 <g id="Layer_x0020_1">
  <metadata id="CorelCorpID_0Corel-Layer"/>
  <path class="fil0" d="M-135670.44 59933.36l28.88 14.66 13.71 -6.66 14.1 7.22 30.39 -14.1 -44.36 -23.51 -42.72 22.39zm-41.94 21.28l0.34 54.88 26.09 -11.48 0 -28.92 29.18 15.9 27.51 -12.81 -57.81 -30.17 -25.31 12.6zm116.21 2.62l19.98 11.9 -134.9 61.46 -1.33 32.84 21.66 11.04 29.99 -13.97 -19.34 -11.21 136.71 -60.47 0.22 -26.74 -27.68 -17.32 -25.31 12.47zm27.37 61.97l-0.73 28.58 -30.98 -14.18 -25.53 11.56 57.63 30.6 25.31 -13.58 -0.08 -54.63 -25.62 11.65zm-58.19 58.88l-16.33 -7.05 -26.86 11.91 42.12 23.16 44.87 -22.26 -27.25 -13.88 -16.55 8.12z"/>
 </g>
</svg>
